<mxfile host="app.diagrams.net" modified="2020-12-10T02:05:16.972Z" agent="5.0 (Windows NT 10.0; Win64; x64) AppleWebKit/537.36 (KHTML, like Gecko) Chrome/87.0.4280.88 Safari/537.36" etag="QWMoTCND_7Ivc_MhWTOO" version="13.11.0" type="github">
  <diagram id="GqYp9QRgiTnMv4ogQ1yT" name="Page-1">
    <mxGraphModel dx="1422" dy="794" grid="1" gridSize="10" guides="1" tooltips="1" connect="1" arrows="1" fold="1" page="1" pageScale="1" pageWidth="827" pageHeight="1169" math="0" shadow="0">
      <root>
        <mxCell id="0" />
        <mxCell id="1" parent="0" />
        <mxCell id="ffeUi8GMqS-hSIrCTA7c-2" value="" style="endArrow=none;html=1;entryX=0.5;entryY=1;entryDx=0;entryDy=0;entryPerimeter=0;" edge="1" parent="1">
          <mxGeometry width="50" height="50" relative="1" as="geometry">
            <mxPoint x="414" y="190" as="sourcePoint" />
            <mxPoint x="414" y="120" as="targetPoint" />
          </mxGeometry>
        </mxCell>
        <mxCell id="ffeUi8GMqS-hSIrCTA7c-6" value="945" style="ellipse;whiteSpace=wrap;html=1;" vertex="1" parent="1">
          <mxGeometry x="394" y="80" width="40" height="40" as="geometry" />
        </mxCell>
        <mxCell id="ffeUi8GMqS-hSIrCTA7c-7" value="946" style="ellipse;whiteSpace=wrap;html=1;" vertex="1" parent="1">
          <mxGeometry x="394" y="190" width="40" height="40" as="geometry" />
        </mxCell>
        <mxCell id="ffeUi8GMqS-hSIrCTA7c-8" value="手机号归属地" style="text;html=1;align=center;verticalAlign=middle;resizable=0;points=[];autosize=1;" vertex="1" parent="1">
          <mxGeometry x="426" y="193" width="90" height="20" as="geometry" />
        </mxCell>
        <mxCell id="ffeUi8GMqS-hSIrCTA7c-9" value="" style="endArrow=none;html=1;entryX=0;entryY=0.5;entryDx=0;entryDy=0;exitX=1;exitY=0;exitDx=0;exitDy=0;" edge="1" parent="1" source="ffeUi8GMqS-hSIrCTA7c-13" target="ffeUi8GMqS-hSIrCTA7c-7">
          <mxGeometry width="50" height="50" relative="1" as="geometry">
            <mxPoint x="200" y="280" as="sourcePoint" />
            <mxPoint x="394" y="220" as="targetPoint" />
            <Array as="points" />
          </mxGeometry>
        </mxCell>
        <mxCell id="ffeUi8GMqS-hSIrCTA7c-10" value="" style="endArrow=none;html=1;entryX=0.5;entryY=1;entryDx=0;entryDy=0;" edge="1" parent="1" target="ffeUi8GMqS-hSIrCTA7c-7">
          <mxGeometry width="50" height="50" relative="1" as="geometry">
            <mxPoint x="414" y="300" as="sourcePoint" />
            <mxPoint x="460" y="250" as="targetPoint" />
          </mxGeometry>
        </mxCell>
        <mxCell id="ffeUi8GMqS-hSIrCTA7c-11" value="" style="endArrow=none;html=1;entryX=1;entryY=1;entryDx=0;entryDy=0;" edge="1" parent="1" target="ffeUi8GMqS-hSIrCTA7c-7">
          <mxGeometry width="50" height="50" relative="1" as="geometry">
            <mxPoint x="500" y="300" as="sourcePoint" />
            <mxPoint x="500" y="250" as="targetPoint" />
          </mxGeometry>
        </mxCell>
        <mxCell id="ffeUi8GMqS-hSIrCTA7c-12" value="" style="endArrow=none;html=1;entryX=1;entryY=0.5;entryDx=0;entryDy=0;" edge="1" parent="1" target="ffeUi8GMqS-hSIrCTA7c-7">
          <mxGeometry width="50" height="50" relative="1" as="geometry">
            <mxPoint x="650" y="300" as="sourcePoint" />
            <mxPoint x="540" y="230" as="targetPoint" />
          </mxGeometry>
        </mxCell>
        <mxCell id="ffeUi8GMqS-hSIrCTA7c-13" value="947" style="ellipse;whiteSpace=wrap;html=1;" vertex="1" parent="1">
          <mxGeometry x="70" y="310" width="40" height="40" as="geometry" />
        </mxCell>
        <mxCell id="ffeUi8GMqS-hSIrCTA7c-14" value="948" style="ellipse;whiteSpace=wrap;html=1;" vertex="1" parent="1">
          <mxGeometry x="394" y="300" width="40" height="40" as="geometry" />
        </mxCell>
        <mxCell id="ffeUi8GMqS-hSIrCTA7c-15" value="949" style="ellipse;whiteSpace=wrap;html=1;" vertex="1" parent="1">
          <mxGeometry x="480" y="300" width="40" height="40" as="geometry" />
        </mxCell>
        <mxCell id="ffeUi8GMqS-hSIrCTA7c-16" value="950" style="ellipse;whiteSpace=wrap;html=1;" vertex="1" parent="1">
          <mxGeometry x="630" y="300" width="40" height="40" as="geometry" />
        </mxCell>
        <mxCell id="ffeUi8GMqS-hSIrCTA7c-17" value="廊坊、承德、邯郸等地区" style="text;html=1;align=center;verticalAlign=middle;resizable=0;points=[];autosize=1;" vertex="1" parent="1">
          <mxGeometry x="125" y="240" width="150" height="20" as="geometry" />
        </mxCell>
        <mxCell id="ffeUi8GMqS-hSIrCTA7c-18" value="拉萨" style="text;html=1;align=center;verticalAlign=middle;resizable=0;points=[];autosize=1;" vertex="1" parent="1">
          <mxGeometry x="380" y="250" width="40" height="20" as="geometry" />
        </mxCell>
        <mxCell id="ffeUi8GMqS-hSIrCTA7c-19" value="高危地区" style="text;html=1;align=center;verticalAlign=middle;resizable=0;points=[];autosize=1;" vertex="1" parent="1">
          <mxGeometry x="440" y="240" width="60" height="20" as="geometry" />
        </mxCell>
        <mxCell id="ffeUi8GMqS-hSIrCTA7c-20" value="其他地区或未查得" style="text;html=1;align=center;verticalAlign=middle;resizable=0;points=[];autosize=1;" vertex="1" parent="1">
          <mxGeometry x="517" y="230" width="110" height="20" as="geometry" />
        </mxCell>
      </root>
    </mxGraphModel>
  </diagram>
</mxfile>
